<?xml version="1.0" encoding="utf-8"?>
<!-- Generator: Adobe Illustrator 22.1.0, SVG Export Plug-In . SVG Version: 6.00 Build 0)  -->
<svg version="1.1" id="圖層_1" xmlns="http://www.w3.org/2000/svg" xmlns:xlink="http://www.w3.org/1999/xlink" x="0px" y="0px"
	 width="50px" height="24.817px" viewBox="0 0 50 24.817" style="enable-background:new 0 0 50 24.817;" xml:space="preserve">
<style type="text/css">
	.st0{fill:#C10230;}
	.st1{fill:#FFFFFF;}
	.st2{fill:#888888;}
</style>
<g>
	<g>
		<path class="st0" d="M32.731,0c-4.208,0-7.62,3.412-7.62,7.62c0,2.541,1.249,4.786,3.161,6.17c0.008,0.02,0.006,0.032,0.014,0.053
			c0,0,0.43,0.806-0.446,1.572c-0.161,0.141-0.055,0.405,0.158,0.387c0.723-0.059,1.664-0.31,2.068-1.052
			c0.831,0.311,1.726,0.489,2.665,0.489c4.209,0,7.62-3.412,7.62-7.62S36.939,0,32.731,0z"/>
		<path class="st1" d="M38.56,7.411L38.058,5.32c-0.092-0.382-0.476-0.618-0.858-0.526l-2.165,0.52
			c-0.342,0.082-0.552,0.426-0.47,0.767l0.116,0.481c0.022,0.091,0.114,0.148,0.205,0.126l0.848-0.204
			c0.102-0.025,0.183,0.087,0.127,0.177L34.09,9.503c-0.044,0.071-0.15,0.065-0.185-0.011l-1.285-2.76
			c-0.263-0.564-1.076-0.53-1.29,0.054l-0.759,2.166c-0.038,0.099-0.177,0.102-0.219,0.005l-1.089-2.234
			c-0.179-0.365-0.573-0.483-0.946-0.3L28.19,6.487c-0.046,0.023-0.073,0.041-0.089,0.056c0,0-0.001,0.001-0.001,0.001
			c-0.007,0.007-0.01,0.013-0.013,0.019c-0.007,0.012-0.012,0.025-0.012,0.04c0,0.027,0.014,0.049,0.034,0.064l0,0.001
			c0.038,0.024,0.061,0.072,0.091,0.133c0,0.001,0.001,0.002,0.001,0.003l1.83,3.875c0.245,0.546,1.032,0.511,1.228-0.054
			l0.666-1.658c0.041-0.117,0.203-0.123,0.253-0.01l0.842,1.906c0.305,0.691,1.259,0.76,1.66,0.12l2.361-3.764
			c0.036-0.058,0.124-0.043,0.14,0.023l0.216,0.9c0.035,0.147,0.183,0.238,0.33,0.202l0.307-0.074
			C38.417,8.178,38.652,7.794,38.56,7.411z"/>
	</g>
	<path class="st1" d="M19.529,6.123c0,0,3.239,0.304,4.807-0.708c1.328-0.857,1.316-2.378,0.607-3.087c0,0,1.569,0.253,2.328,1.366
		c0.759,1.113,0.589,2.949-0.405,4.15c-1.215,1.468-4.048,2.378-7.034,2.277"/>
	<path class="st0" d="M20.279,10.593c-0.154,0-0.308-0.003-0.462-0.008c-0.256-0.009-0.457-0.224-0.449-0.48
		c0.009-0.256,0.224-0.457,0.48-0.449c2.814,0.096,5.554-0.772,6.66-2.109c0.855-1.033,1.025-2.644,0.379-3.592
		c-0.269-0.394-0.67-0.664-1.045-0.844c0.043,0.229,0.054,0.468,0.028,0.709c-0.085,0.801-0.541,1.506-1.283,1.985
		c-1.685,1.087-4.964,0.794-5.103,0.781c-0.255-0.024-0.443-0.25-0.419-0.506c0.024-0.255,0.25-0.443,0.506-0.419
		c0.031,0.003,3.098,0.276,4.513-0.636c0.501-0.323,0.807-0.786,0.863-1.302c0.044-0.415-0.08-0.814-0.332-1.066
		c-0.143-0.143-0.177-0.361-0.085-0.54c0.092-0.179,0.289-0.279,0.488-0.247c0.072,0.012,1.776,0.299,2.638,1.563
		c0.878,1.287,0.689,3.355-0.431,4.708C25.99,9.631,23.238,10.593,20.279,10.593z"/>
	<path class="st1" d="M8.678,6.123c0,0-3.239,0.304-4.807-0.708C2.542,4.558,2.555,3.036,3.263,2.328c0,0-1.569,0.253-2.328,1.366
		S0.346,6.643,1.34,7.844c1.215,1.468,4.048,2.378,7.034,2.277"/>
	<path class="st0" d="M21.541,9.076c0,0,2.809,0.177,3.745,0.405c0.641,0.156,0.383,1.688-0.86,2.53
		c-0.784,0.531-2.277,0.936-3.492-0.076C20.933,11.935,22.097,9.835,21.541,9.076z"/>
	<path class="st1" d="M14.83,24.329h-0.545c-3.803,0-6.886-3.083-6.886-6.886V11.11c0-3.803,3.083-6.886,6.886-6.886h0.545
		c3.803,0,6.886,3.083,6.886,6.886v6.334C21.716,21.247,18.633,24.329,14.83,24.329z"/>
	<path class="st0" d="M18.323,15.492c-1.125-0.576-2.447-0.88-3.827-0.88c-1.362,0-2.675,0.318-3.801,0.919
		c-0.105,0.056-0.164,0.197-0.113,0.305c0.039,0.084,0.122,0.132,0.207,0.132c0.036,0,0.073-0.009,0.108-0.027
		c0.071-0.038,0.142-0.075,0.214-0.11c0.233-0.114,0.498,0.062,0.497,0.322c0,0.002,0,0.005,0,0.007c0,1.188,1.303,2.631,2.91,2.631
		s2.91-1.444,2.91-2.631c0-0.038-0.001-0.075-0.004-0.111c-0.017-0.221,0.205-0.38,0.407-0.288c0.1,0.045,0.199,0.093,0.296,0.143
		c0.118,0.061,0.265,0.008,0.316-0.118C18.489,15.676,18.431,15.547,18.323,15.492z"/>
	<circle class="st0" cx="18.885" cy="12.892" r="1.223"/>
	<path class="st0" d="M20.093,6.01c0.025-0.049,0.048-0.101,0.034-0.155c-0.032-0.123-0.838-3.015-5.472-3.257
		c-2.913-0.152-5.33,0.979-6.859,3.101c-1.019,0.016-2.72-0.06-3.673-0.674C3.621,4.701,3.315,4.239,3.26,3.722
		C3.215,3.307,3.34,2.909,3.592,2.657c0.143-0.143,0.177-0.361,0.085-0.54c-0.092-0.179-0.289-0.28-0.488-0.247
		C3.117,1.881,1.413,2.169,0.551,3.433C-0.326,4.72-0.137,6.788,0.982,8.14C1.428,8.679,2.08,9.142,2.862,9.52
		c-0.542,0.256-0.265,1.683,0.927,2.49c0.568,0.385,1.508,0.696,2.445,0.457c0.21,1.249,0.622,2.019,0.654,2.076
		c0.035,0.061,0.097,0.096,0.165,0.106v2.947c0,3.987,3.232,7.22,7.22,7.22h0.571c3.987,0,7.22-3.232,7.22-7.22v-6.641
		C22.063,9.04,21.311,7.303,20.093,6.01z M6.531,8.275C6.444,8.558,6.378,8.831,6.32,9.1C5.951,9.126,5.341,9.172,4.718,9.233
		c-1.323-0.369-2.416-0.956-3.02-1.686C0.843,6.515,0.673,4.903,1.319,3.956c0.269-0.394,0.67-0.664,1.045-0.844
		C2.32,3.341,2.31,3.58,2.336,3.821c0.085,0.801,0.541,1.506,1.283,1.985c0.978,0.631,2.49,0.796,3.616,0.821
		C6.96,7.138,6.714,7.678,6.531,8.275z M21.031,17.598c0,2.455-1.441,4.574-3.518,5.573c-0.041-0.018-0.085-0.033-0.132-0.023
		c-0.84,0.175-1.915-1.795-2.224-2.5c-0.036-0.083-0.119-0.136-0.209-0.136h-0.81c-0.091,0-0.173,0.054-0.209,0.136
		c-0.309,0.704-1.383,2.675-2.224,2.5c-0.039-0.008-0.074,0.007-0.11,0.019c-2.073-1.001-3.509-3.118-3.509-5.569v-3.089
		c2.385-0.456,4.938-1.559,5.817-1.998c2.275-1.137,4.017-3.352,4.501-4.857c0.191-0.594,0.452-0.951,0.702-1.17
		c1.183,1.128,1.925,2.714,1.925,4.474V17.598z"/>
	<g>
		<path class="st2" d="M27.344,19.251c-0.117,0-0.178-0.086-0.178-0.209c0-0.129,0.061-0.215,0.178-0.215h1.688
			c0.111,0,0.172,0.086,0.172,0.215c0,0.123-0.061,0.209-0.172,0.209h-0.626v1.332h0.479c0.111,0,0.172,0.08,0.172,0.202
			c0,0.123-0.061,0.215-0.172,0.215h-0.479v1.43c0.166-0.067,0.325-0.141,0.473-0.221c0.043-0.018,0.08-0.031,0.117-0.031
			c0.074,0,0.135,0.037,0.178,0.123c0.018,0.043,0.031,0.086,0.031,0.123c0,0.074-0.043,0.135-0.117,0.172
			c-0.503,0.276-1.185,0.528-1.694,0.693c-0.025,0.006-0.055,0.012-0.08,0.012c-0.098,0-0.178-0.061-0.215-0.166
			c-0.006-0.031-0.012-0.061-0.012-0.092c0-0.092,0.043-0.172,0.141-0.196c0.233-0.067,0.485-0.147,0.737-0.239V21h-0.595
			c-0.11,0-0.172-0.086-0.172-0.209c0-0.129,0.061-0.209,0.172-0.209h0.595v-1.332H27.344z M29.394,20.761
			c-0.117,0-0.178-0.098-0.178-0.227c0-0.129,0.061-0.215,0.178-0.215h3.167c0.117,0,0.184,0.092,0.184,0.215
			c0,0.129-0.067,0.227-0.184,0.227h-0.97v2.627c0,0.215,0.055,0.24,0.313,0.24c0.276,0,0.362-0.037,0.417-0.196
			c0.049-0.147,0.061-0.399,0.074-0.675c0.006-0.135,0.092-0.196,0.221-0.196c0.006,0,0.012,0,0.018,0
			c0.129,0.006,0.215,0.074,0.215,0.196c0,0.436-0.055,0.774-0.135,0.951c-0.123,0.264-0.282,0.362-0.835,0.362
			c-0.601,0-0.767-0.104-0.767-0.54v-2.768h-0.632c-0.018,1.792-0.485,2.646-1.633,3.278c-0.055,0.031-0.117,0.049-0.172,0.049
			c-0.08,0-0.147-0.037-0.196-0.129c-0.025-0.049-0.037-0.092-0.037-0.135c0-0.074,0.043-0.141,0.129-0.184
			c1.074-0.552,1.424-1.246,1.436-2.879H29.394z M29.64,19.183c-0.117,0-0.178-0.104-0.178-0.233s0.061-0.221,0.178-0.221h2.658
			c0.123,0,0.184,0.098,0.184,0.221c0,0.129-0.061,0.233-0.184,0.233H29.64z"/>
		<path class="st2" d="M36.493,22.062c-0.043,0.816-0.141,1.412-0.325,1.878c-0.049,0.123-0.135,0.184-0.239,0.184
			c-0.031,0-0.074-0.006-0.111-0.025c-0.074-0.031-0.129-0.104-0.129-0.209c0-0.043,0.012-0.098,0.037-0.154
			c0.264-0.577,0.356-1.602,0.356-3.223v-1.387c0-0.362,0.159-0.503,0.515-0.503h0.675c0.35,0,0.509,0.141,0.509,0.503v4.505
			c0,0.332-0.209,0.485-0.528,0.485c-0.16,0-0.319-0.012-0.442-0.043c-0.08-0.018-0.141-0.086-0.141-0.19
			c0-0.025,0.006-0.049,0.012-0.08c0.025-0.11,0.086-0.159,0.159-0.159c0.012,0,0.031,0,0.049,0.006
			c0.074,0.018,0.166,0.037,0.258,0.037c0.147,0,0.196-0.037,0.196-0.178v-1.449H36.493z M36.524,20.706
			c0,0.344-0.006,0.657-0.012,0.945h0.835v-1.074h-0.822V20.706z M37.346,19.214c0-0.129-0.055-0.159-0.166-0.159h-0.491
			c-0.111,0-0.166,0.031-0.166,0.159v0.945h0.822V19.214z M39.943,19.269c0-0.135-0.061-0.172-0.184-0.172h-0.626
			c-0.104,0-0.159,0.037-0.159,0.172c-0.006,0.779-0.184,1.221-0.632,1.584c-0.061,0.043-0.117,0.067-0.178,0.067
			c-0.067,0-0.129-0.031-0.184-0.086c-0.037-0.043-0.055-0.098-0.055-0.153c0-0.061,0.025-0.129,0.086-0.172
			c0.374-0.282,0.516-0.626,0.516-1.338c0-0.35,0.16-0.497,0.485-0.497h0.878c0.338,0,0.503,0.154,0.503,0.491v0.939
			c0,0.129,0.049,0.166,0.282,0.166c0.196,0,0.276-0.037,0.319-0.123c0.037-0.08,0.049-0.258,0.055-0.448
			c0.006-0.098,0.08-0.166,0.203-0.166c0.006,0,0.012,0,0.018,0c0.123,0.006,0.203,0.074,0.203,0.184c0,0.006,0,0.006,0,0.012
			c-0.012,0.282-0.061,0.577-0.147,0.724c-0.098,0.154-0.246,0.233-0.7,0.233c-0.577,0-0.681-0.11-0.681-0.454V19.269z
			 M38.169,21.516c-0.117,0-0.178-0.092-0.178-0.215c0-0.123,0.061-0.209,0.178-0.209h2.32c0.313,0,0.473,0.166,0.473,0.393
			c0,0.08-0.025,0.172-0.067,0.264c-0.203,0.43-0.51,0.859-0.896,1.246c0.405,0.301,0.866,0.522,1.326,0.675
			c0.104,0.031,0.154,0.098,0.154,0.19c0,0.037-0.006,0.08-0.025,0.129c-0.037,0.11-0.117,0.159-0.203,0.159
			c-0.037,0-0.074-0.006-0.11-0.018c-0.516-0.184-1.037-0.454-1.486-0.829c-0.417,0.344-0.896,0.632-1.418,0.841
			c-0.025,0.006-0.049,0.012-0.074,0.012c-0.08,0-0.172-0.043-0.215-0.147c-0.012-0.037-0.019-0.067-0.019-0.104
			c0-0.092,0.049-0.178,0.166-0.215c0.411-0.154,0.835-0.393,1.221-0.694c-0.27-0.276-0.503-0.589-0.681-0.933
			c-0.092-0.178-0.16-0.362-0.227-0.546H38.169z M38.85,21.516c0.178,0.448,0.448,0.859,0.804,1.184
			c0.313-0.301,0.577-0.638,0.755-1c0.018-0.037,0.031-0.074,0.031-0.098c0-0.055-0.037-0.086-0.117-0.086H38.85z"/>
		<path class="st2" d="M45.077,22.086c0,0.006,0,0.006,0,0.012c-0.025,0.473-0.117,1.105-0.258,1.553
			c-0.025,0.086-0.104,0.129-0.19,0.129c-0.024,0-0.049-0.006-0.073-0.012c-0.092-0.018-0.16-0.092-0.16-0.178
			c0-0.018,0-0.037,0.006-0.055c0.154-0.43,0.233-1,0.258-1.473c0.006-0.098,0.104-0.147,0.203-0.147c0.006,0,0.012,0,0.018,0
			C44.991,21.921,45.077,21.976,45.077,22.086z M45.366,21.546c-0.246,0.025-0.497,0.049-0.73,0.061c-0.006,0-0.012,0-0.018,0
			c-0.11,0-0.19-0.061-0.196-0.203c0-0.012,0-0.018,0-0.031c0-0.11,0.067-0.184,0.178-0.184c0.098-0.006,0.196-0.006,0.301-0.012
			c0.135-0.172,0.258-0.35,0.38-0.528c-0.227-0.338-0.528-0.706-0.761-0.958c-0.037-0.043-0.061-0.086-0.061-0.135
			s0.024-0.098,0.067-0.147c0.049-0.043,0.098-0.074,0.147-0.074c0.043,0,0.086,0.019,0.129,0.061
			c0.043,0.043,0.086,0.092,0.123,0.135c0.203-0.276,0.393-0.657,0.522-0.951c0.031-0.074,0.098-0.104,0.166-0.104
			c0.037,0,0.08,0.006,0.117,0.025c0.08,0.037,0.129,0.092,0.129,0.172c0,0.031-0.006,0.061-0.024,0.098
			c-0.172,0.35-0.381,0.706-0.645,1.074c0.117,0.141,0.227,0.282,0.338,0.43c0.209-0.331,0.405-0.675,0.546-0.964
			c0.043-0.08,0.098-0.117,0.166-0.117c0.037,0,0.074,0.012,0.11,0.031c0.08,0.043,0.123,0.104,0.123,0.172
			c0,0.031-0.012,0.067-0.031,0.098c-0.276,0.534-0.718,1.191-1.08,1.651c0.264-0.019,0.522-0.049,0.786-0.08
			c-0.055-0.147-0.111-0.288-0.172-0.417c-0.006-0.018-0.012-0.037-0.012-0.055c0-0.055,0.043-0.11,0.111-0.141
			c0.031-0.012,0.061-0.018,0.092-0.018c0.061,0,0.117,0.031,0.147,0.086c0.141,0.282,0.282,0.681,0.368,0.988
			c0.006,0.012,0.006,0.025,0.006,0.037c0,0.08-0.061,0.147-0.147,0.172c-0.018,0.006-0.043,0.006-0.067,0.006
			c-0.074,0-0.141-0.031-0.16-0.11c-0.018-0.061-0.031-0.123-0.049-0.184c-0.154,0.025-0.313,0.049-0.466,0.067v2.529
			c0,0.104-0.098,0.16-0.221,0.16c-0.117,0-0.209-0.055-0.209-0.16V21.546z M46.237,21.884c0.08,0,0.135,0.043,0.159,0.141
			c0.074,0.325,0.147,0.779,0.184,1.142c0,0.006,0,0.019,0,0.031c0,0.104-0.061,0.16-0.178,0.178c-0.018,0-0.031,0-0.043,0
			c-0.098,0-0.172-0.061-0.184-0.166c-0.025-0.325-0.086-0.78-0.154-1.08c-0.006-0.019-0.006-0.043-0.006-0.061
			c0-0.098,0.067-0.159,0.147-0.178C46.188,21.884,46.213,21.884,46.237,21.884z M50,23.578c0,0.38-0.196,0.528-0.632,0.528
			c-0.172,0-0.405-0.018-0.62-0.061c-0.098-0.019-0.147-0.086-0.147-0.203c0-0.018,0-0.037,0.006-0.055
			c0.019-0.117,0.092-0.166,0.178-0.166c0.018,0,0.031,0,0.049,0.006c0.166,0.037,0.374,0.055,0.485,0.055
			c0.196,0,0.252-0.037,0.252-0.19V19.22c0-0.129-0.061-0.159-0.172-0.159h-2.05c-0.117,0-0.172,0.031-0.172,0.159v4.8
			c0,0.11-0.086,0.166-0.215,0.166c-0.123,0-0.221-0.055-0.221-0.166v-4.892c0-0.338,0.154-0.473,0.485-0.473h2.29
			c0.331,0,0.485,0.135,0.485,0.473V23.578z M47.434,20.669c-0.092,0-0.147-0.08-0.147-0.19c0-0.117,0.055-0.184,0.147-0.184h0.964
			c0.154-0.319,0.282-0.644,0.356-0.927c0.019-0.08,0.086-0.117,0.166-0.117c0.025,0,0.049,0.006,0.08,0.012
			c0.092,0.025,0.147,0.074,0.147,0.147c0,0.012,0,0.031-0.006,0.049c-0.086,0.264-0.221,0.577-0.35,0.835h0.528
			c0.092,0,0.153,0.074,0.153,0.184c0,0.104-0.061,0.19-0.153,0.19h-0.761v0.614h0.761c0.092,0,0.153,0.067,0.153,0.184
			c0,0.117-0.061,0.196-0.153,0.196h-1.185v0.841c0,0.19,0.049,0.209,0.442,0.209c0.166,0,0.313-0.006,0.448-0.025
			c0.018,0,0.031,0,0.043,0c0.117,0,0.172,0.067,0.178,0.178c0,0.006,0,0.012,0,0.018c0,0.129-0.067,0.19-0.184,0.209
			c-0.141,0.025-0.325,0.031-0.522,0.031c-0.638,0-0.804-0.086-0.804-0.485v-0.976h-0.307c-0.098,0-0.147-0.086-0.147-0.196
			c0-0.111,0.049-0.184,0.147-0.184h0.731v-0.614H47.434z M47.747,19.251c0.061,0,0.11,0.031,0.135,0.074
			c0.104,0.19,0.221,0.442,0.276,0.626c0.006,0.012,0.006,0.031,0.006,0.043c0,0.067-0.049,0.129-0.129,0.153
			c-0.031,0.006-0.055,0.012-0.086,0.012c-0.067,0-0.123-0.031-0.153-0.098c-0.061-0.172-0.16-0.411-0.233-0.553
			c-0.025-0.037-0.031-0.067-0.031-0.098c0-0.061,0.043-0.104,0.104-0.135C47.68,19.257,47.71,19.251,47.747,19.251z"/>
	</g>
</g>
</svg>
